<svg width="29" height="18" viewBox="0 0 29 18" fill="none" xmlns="http://www.w3.org/2000/svg">
<path d="M26.667 3.99257L15.3039 15.6579C15.1984 15.7664 15.0731 15.8524 14.9351 15.9111C14.7972 15.9698 14.6493 16.0001 14.5 16.0001C14.3507 16.0001 14.2028 15.9698 14.0649 15.9111C13.9269 15.8524 13.8016 15.7664 13.6961 15.6579L2.333 3.99257C2.11978 3.77368 2 3.4768 2 3.16725C2 2.85769 2.11978 2.56081 2.333 2.34192C2.54622 2.12303 2.8354 2.00006 3.13694 2.00006C3.43847 2.00006 3.72766 2.12303 3.94087 2.34192L14.5 13.1834L25.0591 2.34192C25.1647 2.23354 25.29 2.14756 25.428 2.08891C25.5659 2.03025 25.7138 2.00006 25.8631 2.00006C26.0124 2.00006 26.1602 2.03025 26.2981 2.08891C26.4361 2.14756 26.5614 2.23354 26.667 2.34192C26.7726 2.4503 26.8563 2.57897 26.9135 2.72058C26.9706 2.86219 27 3.01397 27 3.16725C27 3.32052 26.9706 3.4723 26.9135 3.61391C26.8563 3.75552 26.7726 3.88419 26.667 3.99257Z" fill="black" stroke="#949494" stroke-width="3"/>
</svg>
