<svg width="19" height="14" viewBox="0 0 19 14" fill="none" xmlns="http://www.w3.org/2000/svg">
<path d="M18.531 1.28104L6.53098 13.281C6.46133 13.3508 6.37861 13.4061 6.28756 13.4438C6.19651 13.4816 6.09892 13.501 6.00036 13.501C5.90179 13.501 5.8042 13.4816 5.71315 13.4438C5.6221 13.4061 5.53939 13.3508 5.46973 13.281L0.219731 8.03104C0.0790005 7.89031 -6.10352e-05 7.69944 -6.10352e-05 7.50042C-6.10352e-05 7.30139 0.0790005 7.11052 0.219731 6.96979C0.360461 6.82906 0.551333 6.75 0.750356 6.75C0.949379 6.75 1.14025 6.82906 1.28098 6.96979L6.00036 11.6901L17.4697 0.219792C17.6105 0.0790612 17.8013 -1.48284e-09 18.0004 0C18.1994 1.48284e-09 18.3903 0.0790612 18.531 0.219792C18.6717 0.360522 18.7508 0.551394 18.7508 0.750417C18.7508 0.94944 18.6717 1.14031 18.531 1.28104Z" fill="black"/>
</svg>
