<svg width="29" height="18" viewBox="0 0 29 18" fill="none" xmlns="http://www.w3.org/2000/svg">
<path d="M2.333 14.0078L13.6961 2.3424C13.8016 2.23394 13.9269 2.1479 14.0649 2.0892C14.2028 2.03049 14.3507 2.00028 14.5 2.00028C14.6493 2.00028 14.7972 2.03049 14.9351 2.0892C15.0731 2.1479 15.1984 2.23394 15.3039 2.3424L26.667 14.0078C26.8802 14.2267 27 14.5235 27 14.8331C27 15.1426 26.8802 15.4395 26.667 15.6584C26.4538 15.8773 26.1646 16.0003 25.8631 16.0003C25.5615 16.0003 25.2723 15.8773 25.0591 15.6584L14.5 4.81692L3.94088 15.6584C3.8353 15.7668 3.70997 15.8528 3.57203 15.9114C3.43409 15.9701 3.28625 16.0003 3.13694 16.0003C2.98763 16.0003 2.83979 15.9701 2.70185 15.9114C2.56391 15.8528 2.43858 15.7668 2.333 15.6584C2.22743 15.55 2.14368 15.4214 2.08655 15.2798C2.02941 15.1381 2 14.9864 2 14.8331C2 14.6798 2.02941 14.528 2.08655 14.3864C2.14368 14.2448 2.22743 14.1162 2.333 14.0078Z" fill="black" stroke="#949494" stroke-width="3"/>
</svg>
