<svg width="31" height="31" viewBox="0 0 31 31" fill="none" xmlns="http://www.w3.org/2000/svg">
<path d="M30.5458 28.3527C30.6898 28.4967 30.804 28.6676 30.882 28.8558C30.9599 29.0439 31 29.2456 31 29.4492C31 29.6529 30.9599 29.8545 30.882 30.0427C30.804 30.2308 30.6898 30.4018 30.5458 30.5458C30.4018 30.6898 30.2308 30.804 30.0427 30.882C29.8545 30.9599 29.6529 31 29.4492 31C29.2456 31 29.0439 30.9599 28.8558 30.882C28.6676 30.804 28.4967 30.6898 28.3527 30.5458L15.5 17.6912L2.64734 30.5458C2.35651 30.8366 1.96207 31 1.55078 31C1.13948 31 0.745038 30.8366 0.454212 30.5458C0.163385 30.255 8.10753e-09 29.8605 0 29.4492C-8.10753e-09 29.0379 0.163385 28.6435 0.454212 28.3527L13.3088 15.5L0.454212 2.64735C0.163385 2.35652 0 1.96208 0 1.55079C0 1.1395 0.163385 0.74505 0.454212 0.454223C0.745038 0.163396 1.13948 1.14441e-05 1.55078 1.14441e-05C1.96207 1.14441e-05 2.35651 0.163396 2.64734 0.454223L15.5 13.3088L28.3527 0.454223C28.6435 0.163396 29.0379 1.1436e-05 29.4492 1.14441e-05C29.8605 1.14522e-05 30.255 0.163396 30.5458 0.454223C30.8366 0.74505 31 1.1395 31 1.55079C31 1.96208 30.8366 2.35652 30.5458 2.64735L17.6912 15.5L30.5458 28.3527Z" fill="black"/>
</svg>
