<svg width="40" height="40" viewBox="0 0 40 40" fill="none" xmlns="http://www.w3.org/2000/svg">
<path d="M39.0625 9.87508L30.1264 0.93742C29.8292 0.640206 29.4764 0.40444 29.0881 0.243585C28.6998 0.0827304 28.2836 -6.10352e-05 27.8633 -6.10352e-05C27.443 -6.10352e-05 27.0269 0.0827304 26.6386 0.243585C26.2503 0.40444 25.8975 0.640206 25.6003 0.93742L0.938027 25.6005C0.639583 25.8965 0.402968 26.249 0.241937 26.6373C0.0809066 27.0256 -0.00132689 27.442 1.61901e-05 27.8624V36.8C1.61901e-05 37.6487 0.337162 38.4626 0.937285 39.0627C1.53741 39.6628 2.35135 39.9999 3.20005 39.9999H12.1382C12.5585 40.0013 12.975 39.919 13.3633 39.758C13.7517 39.597 14.1041 39.3604 14.4002 39.062L39.0625 14.4009C39.3597 14.1038 39.5955 13.751 39.7563 13.3627C39.9172 12.9744 40 12.5583 40 12.138C40 11.7177 39.9172 11.3016 39.7563 10.9133C39.5955 10.525 39.3597 10.1722 39.0625 9.87508ZM12.1382 36.8H3.20005V27.8624L20.8003 10.2631L29.7384 19.2007L12.1382 36.8ZM32.0004 16.9368L23.0623 8.00115L27.8623 3.20133L36.8004 12.137L32.0004 16.9368Z" fill="#AEADAD"/>
</svg>
