<svg width="55" height="43" viewBox="0 0 55 43" fill="none" xmlns="http://www.w3.org/2000/svg">
<path d="M52.8846 -6.10352e-05H2.11538C1.55435 -6.10352e-05 1.01629 0.226457 0.619582 0.62966C0.22287 1.03286 0 1.57972 0 2.14994V38.6999C0 39.8404 0.44574 40.9341 1.23916 41.7405C2.03259 42.5469 3.1087 42.9999 4.23077 42.9999H50.7692C51.8913 42.9999 52.9674 42.5469 53.7608 41.7405C54.5543 40.9341 55 39.8404 55 38.6999V2.14994C55 1.57972 54.7771 1.03286 54.3804 0.62966C53.9837 0.226457 53.4456 -6.10352e-05 52.8846 -6.10352e-05ZM47.4454 4.29994L27.5 22.884L7.55457 4.29994H47.4454ZM50.7692 38.6999H4.23077V7.0385L26.0695 27.3856C26.4597 27.7497 26.9702 27.9517 27.5 27.9517C28.0298 27.9517 28.5403 27.7497 28.9305 27.3856L50.7692 7.0385V38.6999Z" fill="black"/>
</svg>
