<svg width="51" height="51" viewBox="0 0 51 51" fill="none" xmlns="http://www.w3.org/2000/svg">
<path d="M48.5447 34.2871L36.5316 28.904L36.4984 28.8887C35.8748 28.6219 35.1945 28.5149 34.519 28.5772C33.8436 28.6395 33.1944 28.8693 32.6301 29.2457C32.5636 29.2895 32.4998 29.3372 32.4388 29.3885L26.2321 34.6798C22.2999 32.7698 18.2403 28.7408 16.3303 24.8596L21.6293 18.5585C21.6803 18.4948 21.7287 18.431 21.7746 18.3622C22.1429 17.7994 22.3664 17.1543 22.4251 16.4842C22.4838 15.8142 22.376 15.1401 22.1112 14.5218V14.4912L16.7128 2.45765C16.3628 1.64996 15.761 0.977141 14.9972 0.539616C14.2333 0.102092 13.3485 -0.0766674 12.4747 0.0300232C9.01936 0.48471 5.84767 2.18165 3.55203 4.80391C1.25638 7.42617 -0.00622442 10.7944 2.30742e-05 14.2796C2.30742e-05 34.5268 16.4731 50.9999 36.7203 50.9999C40.2054 51.0062 43.5737 49.7435 46.1959 47.4479C48.8182 45.1522 50.5151 41.9806 50.9698 38.5252C51.0767 37.6517 50.8983 36.7671 50.4612 36.0033C50.0242 35.2395 49.3519 34.6375 48.5447 34.2871ZM36.7203 46.9199C28.0665 46.9104 19.7698 43.4685 13.6506 37.3493C7.53141 31.2301 4.0895 22.9334 4.08005 14.2796C4.07046 11.7894 4.96759 9.38095 6.6039 7.50391C8.24021 5.62686 10.5038 4.4096 12.972 4.07946C12.971 4.08964 12.971 4.09989 12.972 4.11006L18.327 16.0952L13.0561 22.4039C13.0026 22.4655 12.954 22.5311 12.9108 22.6003C12.527 23.1891 12.3019 23.8671 12.2572 24.5686C12.2126 25.27 12.3498 25.9711 12.6558 26.6038C14.9661 31.329 19.727 36.0542 24.5031 38.362C25.1406 38.6651 25.8457 38.7976 26.5496 38.7466C27.2536 38.6957 27.9323 38.463 28.5194 38.0713C28.5849 38.0272 28.6479 37.9795 28.7081 37.9285L34.9072 32.6397L46.8923 38.0075C46.8923 38.0075 46.9127 38.0075 46.9204 38.0075C46.5942 40.4792 45.3788 42.7474 43.5014 44.3877C41.624 46.0281 39.2133 46.9283 36.7203 46.9199Z" fill="black"/>
</svg>
